<svg width="121" height="121" viewBox="0 0 121 121" fill="none" xmlns="http://www.w3.org/2000/svg">
<path fill-rule="evenodd" clip-rule="evenodd" d="M0 60.5C0 27.0868 27.0868 0 60.5 0C93.9132 0 121 27.0868 121 60.5C121 93.9132 93.9132 121 60.5 121C27.0868 121 0 93.9132 0 60.5ZM60.5 3.92188C29.2528 3.92188 3.92188 29.2528 3.92188 60.5C3.92188 91.7472 29.2528 117.078 60.5 117.078C91.7472 117.078 117.078 91.7472 117.078 60.5C117.078 29.2528 91.7472 3.92188 60.5 3.92188Z" fill="#C00000"/>
<path d="M41 41L80 80" stroke="#C00000" stroke-width="3"/>
<path d="M80 42L41 81" stroke="#C00000" stroke-width="3"/>
</svg>
