<svg width="1238" height="820" viewBox="0 0 1238 820" fill="none" xmlns="http://www.w3.org/2000/svg">
<g filter="url(#filter0_d)">
<path d="M59 53H1179V755H59V53Z" fill="#FFE0E2"/>
</g>
<path fill-rule="evenodd" clip-rule="evenodd" d="M745.796 77.8493L741.688 75L732 88.9696L736.109 91.8189L745.796 77.8493ZM214.121 92L219.082 92.6239L216.961 109.491L212 108.867L214.121 92ZM132.722 114L135.222 118.33L120.5 126.83L118 122.5L132.722 114ZM334.688 209L338.796 211.849L329.109 225.819L325 222.97L334.688 209ZM281.082 154.624L276.121 154L274 170.867L278.961 171.491L281.082 154.624ZM106.563 169L103 172.508L114.928 184.621L118.491 181.113L106.563 169ZM906.722 221L909.222 225.33L894.5 233.83L892 229.5L906.722 221ZM1116.22 112.33L1113.72 108L1099 116.5L1101.5 120.83L1116.22 112.33ZM1058.12 273L1063.08 273.624L1060.96 290.491L1056 289.867L1058.12 273ZM1110.08 485.624L1105.12 485L1103 501.867L1107.96 502.491L1110.08 485.624ZM924 352.508L927.563 349L939.491 361.113L935.928 364.621L924 352.508ZM778.563 365L775 368.508L786.928 380.621L790.491 377.113L778.563 365ZM278.397 282.537L276 278.149L290.92 270L293.316 274.388L278.397 282.537ZM196.384 291.228L201.329 291.969L203.849 275.157L198.905 274.416L196.384 291.228ZM107.945 256.553L103 255.812L105.52 239L110.465 239.741L107.945 256.553ZM566 448.812L570.945 449.553L573.465 432.741L568.52 432L566 448.812ZM627.308 616.004L624.736 620.292L610.157 611.549L612.729 607.261L627.308 616.004ZM377.638 275.815L381.282 272.392L369.645 260L366 263.423L377.638 275.815ZM481.303 104L485.412 106.849L475.724 120.819L471.616 117.97L481.303 104ZM466.397 275.537L464 271.149L478.92 263L481.316 267.388L466.397 275.537ZM332 114.149L334.397 118.537L349.316 110.388L346.92 106L332 114.149ZM391.945 172.969L387 172.228L389.52 155.416L394.465 156.157L391.945 172.969ZM562.638 127.815L566.282 124.392L554.645 112L551 115.423L562.638 127.815ZM205.093 493.542L200 492.823L202.516 476L207.609 476.719L205.093 493.542ZM132.228 419.308L128.007 416.449L118 430.394L122.221 433.254L132.228 419.308ZM243 339.541L247.896 338L253.287 354.173L248.391 355.713L243 339.541ZM619.896 356L615 357.541L620.391 373.713L625.287 372.173L619.896 356ZM976.397 126.537L974 122.149L988.92 114L991.316 118.388L976.397 126.537ZM1033.15 196.299L1038.14 195.961L1036.99 179L1032 179.338L1033.15 196.299ZM885.329 124.969L880.384 124.228L882.905 107.416L887.849 108.157L885.329 124.969ZM800.938 226.101L803.374 221.734L788.527 213.453L786.091 217.819L800.938 226.101ZM1064.94 598.553L1060 597.812L1062.52 581L1067.46 581.741L1064.94 598.553ZM962.896 263L958 264.541L963.391 280.713L968.287 279.173L962.896 263ZM853 410.541L857.896 409L863.287 425.173L858.391 426.713L853 410.541ZM357.788 539L356 543.688L372.408 549.594L374.195 544.905L357.788 539ZM357.225 372.696L360.916 369.296L372.97 381.897L369.28 385.297L357.225 372.696ZM385.1 385.632L383.444 380.895L367.095 386.962L368.752 391.698L385.1 385.632Z" fill="#FFEFF0"/>
<path fill-rule="evenodd" clip-rule="evenodd" d="M820.615 132.961C821.747 127.894 827.332 125.231 831.982 127.54L852.44 137.703C855.817 139.38 857.565 143.188 856.633 146.843L851.669 166.323C850.537 170.765 845.912 173.349 841.536 171.985L820.859 165.539C816.885 164.3 814.525 160.22 815.432 156.157L820.615 132.961ZM147.827 198.02C145.881 202.84 148.976 208.206 154.122 208.935L207.028 216.44C211.223 217.035 215.155 214.256 215.993 210.102L223.865 171.102C224.759 166.671 221.807 162.379 217.349 161.63L172.339 154.065C168.636 153.443 164.999 155.478 163.594 158.96L147.827 198.02ZM1036.99 327.968C1035.16 332.828 1038.38 338.118 1043.53 338.733L1107.97 346.419C1112.09 346.91 1115.89 344.179 1116.75 340.124L1129.49 279.644C1130.44 275.142 1127.4 270.77 1122.85 270.084L1068.65 261.916C1064.91 261.354 1061.3 263.475 1059.97 267.005L1036.99 327.968ZM414.628 455.366C413.679 460.47 408.193 463.332 403.464 461.19L338.073 431.583C334.637 430.028 332.755 426.285 333.554 422.599L347.007 360.592C347.979 356.112 352.509 353.363 356.931 354.57L422.582 372.48C426.598 373.576 429.103 377.568 428.341 381.661L414.628 455.366ZM173.682 728.255C175.778 733.12 181.937 734.641 186.057 731.312L222.845 701.589C225.864 699.15 226.697 694.896 224.821 691.499L187.006 623.017C184.675 618.795 179.167 617.58 175.276 620.43L143.894 643.414C140.886 645.617 139.799 649.608 141.274 653.033L173.682 728.255ZM883.603 552.139C879.347 555.119 873.425 553.315 871.552 548.47L864.175 529.377C862.814 525.857 864.099 521.865 867.257 519.799L880.669 511.025C884.528 508.501 889.715 509.752 891.999 513.757L901.633 530.653C903.679 534.242 902.656 538.799 899.271 541.169L883.603 552.139ZM1103.03 725.347C1108.33 725.521 1112.32 720.598 1111.07 715.455L1099.62 668.575C1098.58 664.282 1094.25 661.652 1089.96 662.7L1071.06 667.313C1066.82 668.348 1064.19 672.59 1065.16 676.847L1074.55 718.427C1075.35 721.979 1078.45 724.541 1082.09 724.661L1103.03 725.347ZM157.56 304.804C157.453 299.613 152.506 295.898 147.491 297.242L124.533 303.395C120.512 304.473 117.989 308.454 118.732 312.551L122.599 333.861C123.417 338.371 127.85 341.273 132.311 340.218L151.874 335.593C155.544 334.725 158.11 331.413 158.032 327.643L157.56 304.804Z" fill="#FFE6E7"/>
<g clip-path="url(#clip0)">
<path d="M117.909 311.16L130.695 360.364L160.843 351.341L148.057 302.137L117.909 311.16Z" fill="#362E2D"/>
<path d="M115.2 314.529L117.8 311.416L146.5 306.158L159.3 350.481L148.5 376.559L128.3 362.393L115.2 314.529Z" fill="white"/>
<path d="M136.8 333.524L149.6 378.598L127.9 363.681L115.2 314.529L136.8 333.524Z" fill="#4E3734"/>
<path d="M117.8 312.275L144.6 311.202L157.6 354.559L159.3 350.481L146.5 306.158L118.6 311.202L117.8 312.275Z" fill="#F7F7F7"/>
<path d="M237.9 384.071C254.745 384.071 268.4 369.417 268.4 351.339C268.4 333.261 254.745 318.607 237.9 318.607C221.055 318.607 207.4 333.261 207.4 351.339C207.4 369.417 221.055 384.071 237.9 384.071Z" fill="#8C503E"/>
<path d="M377.2 661.17C377.2 661.17 381 671.365 382.7 676.946C384.4 682.526 387.4 689.502 389.9 689.717C392.4 689.932 392.9 679.522 391.3 663.638C389.7 647.862 390.9 645.609 382.8 645.716C379.2 645.716 377.2 645.394 377.2 645.394V661.17Z" fill="#FF6ED9"/>
<path d="M153.2 716.332C153.2 716.332 142.3 718.156 136.6 720.625C130.9 723.093 126.5 725.561 126.5 728.566C126.5 730.927 136.9 730.176 153.1 730.176C169.7 730.284 174.4 730.713 171.5 721.698C170.5 718.586 167.9 716.01 167.9 716.01L153.2 716.332Z" fill="#FF6ED9"/>
<path d="M268.4 351.339C268.4 333.202 254.7 318.607 237.9 318.607C233.3 318.607 228.9 319.68 225 321.719L224.2 322.148C223.2 324.187 222.6 326.441 222.6 328.909C222.6 336.744 228.5 343.075 235.8 343.075C236.4 343.075 237 342.968 237.7 342.968C236.9 344.041 236.5 345.437 236.5 346.939C236.5 350.266 238.9 353.056 241.9 353.485C241.6 354.344 241.5 355.203 241.5 356.061C241.5 360.139 244.6 363.466 248.4 363.466H248.5C249.1 366.471 251.5 368.617 254.5 368.617C255.3 368.617 256.1 368.403 256.8 368.188C257.2 370.442 259.1 372.159 261.3 372.159L263 370.442C266.3 365.076 268.4 358.422 268.4 351.339Z" fill="#4E3734"/>
<path d="M146.8 389.867C146.8 389.867 147.4 379.242 144.5 373.554C141.6 367.866 135.4 364.754 132.5 359.817C129.7 354.881 129.8 348.12 127.1 347.476C124.4 346.832 119.9 358.422 122.8 364.003C125.6 369.583 129.2 373.232 131 378.92C132.8 384.608 135.6 389.652 137.3 391.262C139.1 392.872 146.8 389.867 146.8 389.867Z" fill="#8C503E"/>
<path d="M317.3 517.469C317.3 517.469 320.8 527.45 325.7 531.314C330.5 535.177 337.4 535.284 341.9 538.611C346.4 541.831 348.8 548.055 351.5 547.411C354.2 546.768 353.8 534.211 349.1 530.455C344.4 526.591 339.7 524.874 335.9 520.474C332.1 516.074 327.6 512.747 325.4 511.996C323.2 511.245 317.3 517.469 317.3 517.469Z" fill="#8C503E"/>
<path d="M201.2 539.47C201.2 539.47 181.7 583.149 173.2 617.062C162 661.921 153.2 716.439 153.2 716.439L167.8 716.225C167.8 716.225 185.5 694.117 211.1 649.365C236.9 604.183 248.6 575.529 248.6 575.529C248.6 575.529 265.9 642.496 277.2 653.014C293 667.716 329.9 667.072 341.6 666.214C353.3 665.355 377.1 661.277 377.1 661.277V645.501C377.1 645.501 347.1 640.35 335.1 634.984C323.1 629.618 308.8 625.218 308.8 625.218C308.8 625.218 304 589.373 300.5 570.378C297 551.382 292.2 529.596 292.2 529.596L201.2 539.47Z" fill="#5441AF"/>
<path d="M248.7 575.422L254.5 562.329C254.5 562.329 257.8 569.305 257.4 578.212C257.1 587.12 255.3 599.032 255.3 599.032L248.7 575.422Z" fill="#4F3D9D"/>
<path d="M111 405.106C111 405.106 116.2 405.321 124.7 411.223C143.7 424.423 149.9 452.97 172.9 457.156C192.2 460.697 204.7 454.473 204.7 454.473C204.7 454.473 197.2 477.547 195.2 488.064C193.2 498.581 193.4 517.577 185.4 525.948C177.4 534.318 173.7 538.289 173.7 538.289C173.7 538.289 208.7 545.05 237 539.362C265.3 533.675 280.7 531.635 285.8 531.85C291 532.065 299 533.138 299 533.138C299 533.138 295.8 525.411 292.8 517.577C289.8 509.742 289.1 501.801 289.1 501.801C289.1 501.801 308.1 518.113 311.1 523.479C314.1 528.845 314.6 537.753 314.6 537.753C314.6 537.753 318.9 527.772 321.9 524.338C324.9 520.904 327.2 516.825 330.9 513.82C334.6 510.816 336.7 508.454 336.7 508.454C336.7 508.454 332.7 508.776 329.2 505.45C325.7 502.015 306 476.151 302 471.966C298 467.888 283 450.287 283 450.287C283 450.287 281.2 394.267 250.3 395.34C230.8 395.984 219.5 401.243 207.1 408.433C194.8 415.623 183.9 423.458 183.9 423.458C183.9 423.458 162.9 409.828 155.6 393.516C153.1 388.042 152 383.964 152 383.964C152 383.964 144.3 385.467 133.7 391.047C122.4 397.164 111 405.106 111 405.106Z" fill="#FF353A"/>
<path d="M204.7 454.473C204.7 454.473 215.6 454.151 225.9 450.824C236.2 447.39 247.3 442.131 250 435.37C252.7 428.609 253.9 421.741 253.9 421.741C253.9 421.741 255.8 433.009 251.4 443.634C247 454.258 232.8 459.41 227.5 461.449C222.2 463.488 200.8 467.137 200.8 467.137L204.7 454.473Z" fill="#E2303D"/>
<path d="M284.2 462.307C284.2 462.307 285.8 481.195 286.5 486.776C287.2 492.357 289.3 502.015 289.3 502.015L294.5 506.523C294.5 506.523 290.8 494.61 289.4 486.132C287.8 477.654 284.2 462.307 284.2 462.307Z" fill="#E2303D"/>
<path d="M245.4 532.065C241.9 532.065 239.1 529.06 239.1 525.304C239.1 521.547 241.9 518.543 245.4 518.543C248.9 518.543 251.7 521.547 251.7 525.304C251.7 529.06 248.9 532.065 245.4 532.065ZM245.4 519.616C242.5 519.616 240.1 522.191 240.1 525.304C240.1 528.416 242.5 530.992 245.4 530.992C248.3 530.992 250.7 528.416 250.7 525.304C250.7 522.191 248.4 519.616 245.4 519.616Z" fill="#5441AF"/>
<path d="M273 423.78C275 423.78 276.8 422.706 278 421.097C277.9 420.667 277.7 420.238 277.6 419.809C276.7 421.526 275 422.599 273.1 422.599C270.2 422.599 267.8 420.023 267.8 416.911C267.8 413.799 270.2 411.223 273.1 411.223C273.4 411.223 273.7 411.223 274 411.331C273.8 410.901 273.6 410.579 273.4 410.15C273.3 410.15 273.2 410.15 273.1 410.15C269.6 410.15 266.8 413.155 266.8 416.911C266.8 420.667 269.5 423.78 273 423.78Z" fill="#5441AF"/>
<path d="M190.6 535.07C195.6 535.07 199.7 530.67 199.7 525.304C199.7 519.938 195.7 515.645 190.7 515.538C190.6 515.86 190.5 516.289 190.4 516.611C190.5 516.611 190.5 516.611 190.6 516.611C195.1 516.611 198.7 520.474 198.7 525.304C198.7 530.133 195.1 533.997 190.6 533.997C187.2 533.997 184.2 531.636 183 528.416C182.7 528.738 182.5 528.953 182.2 529.274C183.7 532.709 186.9 535.07 190.6 535.07Z" fill="#5441AF"/>
<path d="M215 428.716C211 428.716 207.8 425.282 207.8 420.989C207.8 416.697 211 413.262 215 413.262C219 413.262 222.2 416.697 222.2 420.989C222.2 425.282 218.9 428.716 215 428.716ZM215 414.443C211.6 414.443 208.8 417.448 208.8 421.097C208.8 424.746 211.6 427.75 215 427.75C218.4 427.75 221.2 424.746 221.2 421.097C221.2 417.448 218.4 414.443 215 414.443Z" fill="#5441AF"/>
<path d="M157.8 414.443C155.3 414.443 153.2 412.189 153.2 409.506C153.2 406.823 155.3 404.569 157.8 404.569C160.3 404.569 162.4 406.823 162.4 409.506C162.4 412.189 160.3 414.443 157.8 414.443ZM157.8 405.643C155.8 405.643 154.2 407.36 154.2 409.506C154.2 411.653 155.8 413.37 157.8 413.37C159.8 413.37 161.4 411.653 161.4 409.506C161.4 407.36 159.8 405.643 157.8 405.643Z" fill="#5441AF"/>
<path d="M305.9 476.473C305.3 477.654 304.1 478.405 302.8 478.405C300.8 478.405 299.2 476.688 299.2 474.542C299.2 473.039 300 471.751 301.2 471.107C301 470.893 300.7 470.571 300.5 470.356C299.1 471.215 298.2 472.824 298.2 474.649C298.2 477.332 300.3 479.586 302.8 479.586C304.4 479.586 305.8 478.727 306.6 477.439C306.4 477.01 306.2 476.688 305.9 476.473Z" fill="#5441AF"/>
<path d="M257.4 464.561C254.9 464.561 252.8 462.307 252.8 459.624C252.8 456.941 254.9 454.688 257.4 454.688C259.9 454.688 262 456.941 262 459.624C262 462.307 260 464.561 257.4 464.561ZM257.4 455.868C255.4 455.868 253.8 457.585 253.8 459.732C253.8 461.878 255.4 463.595 257.4 463.595C259.4 463.595 261 461.878 261 459.732C261 457.585 259.4 455.868 257.4 455.868Z" fill="#5441AF"/>
<path d="M125.2 406.716C123.6 406.716 122.2 407.789 121.5 409.184C121.8 409.399 122.1 409.506 122.4 409.721C122.9 408.54 124 407.789 125.2 407.789C126.9 407.789 128.3 409.291 128.3 411.116C128.3 411.974 128 412.833 127.4 413.37C127.7 413.584 127.9 413.799 128.2 414.014C128.9 413.262 129.3 412.189 129.3 411.116C129.3 408.648 127.5 406.716 125.2 406.716Z" fill="#5441AF"/>
<path d="M209.2 488.171C206.2 488.171 203.8 485.596 203.8 482.376C203.8 479.156 206.2 476.581 209.2 476.581C212.2 476.581 214.6 479.156 214.6 482.376C214.6 485.596 212.2 488.171 209.2 488.171ZM209.2 477.547C206.8 477.547 204.8 479.693 204.8 482.269C204.8 484.844 206.8 486.991 209.2 486.991C211.6 486.991 213.6 484.844 213.6 482.269C213.6 479.693 211.7 477.547 209.2 477.547Z" fill="#5441AF"/>
<path d="M307.9 510.923C305.7 510.923 303.8 512.318 302.9 514.357C303.2 514.572 303.4 514.894 303.7 515.108C304.3 513.284 305.9 511.889 307.9 511.889C310.3 511.889 312.3 514.035 312.3 516.611C312.3 518.65 311.1 520.367 309.4 521.011C309.7 521.333 309.9 521.547 310.1 521.869C312 520.904 313.3 518.972 313.3 516.611C313.3 513.499 310.9 510.923 307.9 510.923Z" fill="#5441AF"/>
<path d="M192.5 448.356C190.2 448.356 188.4 446.424 188.4 443.956C188.4 441.487 190.2 439.556 192.5 439.556C194.8 439.556 196.6 441.487 196.6 443.956C196.6 446.424 194.8 448.356 192.5 448.356ZM192.5 440.629C190.8 440.629 189.4 442.131 189.4 443.956C189.4 445.78 190.8 447.283 192.5 447.283C194.2 447.283 195.6 445.78 195.6 443.956C195.6 442.131 194.2 440.629 192.5 440.629Z" fill="#5441AF"/>
<path d="M273 502.123C269.8 502.123 267.3 499.332 267.3 496.006C267.3 492.679 269.9 489.888 273 489.888C276.1 489.888 278.7 492.679 278.7 496.006C278.7 499.332 276.2 502.123 273 502.123ZM273 490.854C270.4 490.854 268.3 493.108 268.3 495.898C268.3 498.688 270.4 500.942 273 500.942C275.6 500.942 277.7 498.688 277.7 495.898C277.7 493.108 275.6 490.854 273 490.854Z" fill="#5441AF"/>
<path d="M232.9 499.225C231.2 499.225 229.9 497.723 229.9 496.005C229.9 494.181 231.3 492.786 232.9 492.786C234.5 492.786 235.9 494.288 235.9 496.005C235.9 497.723 234.6 499.225 232.9 499.225ZM232.9 493.752C231.8 493.752 230.9 494.718 230.9 495.898C230.9 497.079 231.8 498.045 232.9 498.045C234 498.045 234.9 497.079 234.9 495.898C234.9 494.718 234 493.752 232.9 493.752Z" fill="#5441AF"/>
<path d="M160.3 451.683C161.1 450.609 161.6 449.214 161.6 447.605C161.6 443.848 158.8 440.843 155.3 440.843C153.7 440.843 152.2 441.487 151.1 442.561C151.3 442.882 151.6 443.097 151.8 443.419C152.7 442.561 154 441.917 155.3 441.917C158.2 441.917 160.6 444.492 160.6 447.605C160.6 448.892 160.2 450.073 159.5 451.039C159.7 451.253 160 451.468 160.3 451.683Z" fill="#5441AF"/>
<path d="M137.3 719.981C137.3 719.981 138.4 720.625 139.1 721.805C139.8 722.986 139.6 724.81 139.6 724.81" stroke="#5441AF" stroke-miterlimit="10"/>
<path d="M141 718.371C141 718.371 142.1 719.015 142.8 720.196C143.5 721.376 143.3 723.2 143.3 723.2" stroke="#5441AF" stroke-miterlimit="10"/>
<path d="M144.6 717.405C144.6 717.405 145.7 718.049 146.4 719.23C147.1 720.41 146.9 722.235 146.9 722.235" stroke="#5441AF" stroke-miterlimit="10"/>
<path d="M147.9 716.225C147.9 716.225 149 716.869 149.7 718.049C150.4 719.23 150.2 721.054 150.2 721.054" stroke="#5441AF" stroke-miterlimit="10"/>
<path d="M381.9 676.195C381.9 676.195 382.4 674.907 383.5 674.156C384.6 673.404 386.3 673.512 386.3 673.512" stroke="#5441AF" stroke-miterlimit="10"/>
<path d="M380.2 672.331C380.2 672.331 380.7 671.043 381.8 670.292C382.9 669.541 384.6 669.648 384.6 669.648" stroke="#5441AF" stroke-miterlimit="10"/>
<path d="M379.2 668.468C379.2 668.468 379.7 667.18 380.8 666.429C381.9 665.677 383.6 665.785 383.6 665.785" stroke="#5441AF" stroke-miterlimit="10"/>
<path d="M377.9 665.033C377.9 665.033 378.4 663.746 379.5 662.994C380.6 662.243 382.3 662.35 382.3 662.35" stroke="#5441AF" stroke-miterlimit="10"/>
<path d="M634.1 386.218L665.9 427.214L651.1 450.609L620.5 411.867L634.1 386.218Z" fill="#4F3D9D"/>
<path d="M620.5 414.55L620.6 412.082L634.2 387.828L664.3 427.214L654 443.097L643.2 438.482L620.5 414.55Z" fill="white"/>
<path d="M673.5 459.088L675 457.585L647.8 422.17L620.5 413.799V414.55L628.2 425.175L673.5 459.088Z" fill="#F7F7F7"/>
<path d="M647.2 423.243L675 459.839L649.7 454.795L620.5 414.55L647.2 423.243Z" fill="#5441AF"/>
<path d="M620.5 411.867V414.55L621.1 414.765L621 410.794L620.5 411.867Z" fill="#362E2D"/>
<path d="M711.6 558.895C711.6 558.895 690.8 578.212 682.8 586.261C674.8 594.31 670.8 597.53 668.8 603.432C666.8 609.335 662.3 651.726 661.5 664.926C660.7 678.126 660 706.566 660 706.566H673.8C673.8 706.566 678.8 687.785 683.8 676.731C688.8 665.677 696.1 653.121 699.3 643.462C702.5 633.804 704.1 620.603 704.1 620.603C704.1 620.603 716.9 619.315 731.9 611.266C746.9 603.218 753.2 599.139 753.2 599.139C753.2 599.139 762.5 618.993 770.5 635.628C778.5 652.262 781.5 657.414 788.5 664.604C795.5 671.795 822.7 684.351 835.2 688.429C852.5 694.01 867.6 696.156 867.6 696.156L870.1 681.883C870.1 681.883 850.1 671.043 839.2 662.994C829.2 655.589 820.9 647.218 818.4 640.243C815.9 633.267 812.3 593.451 809.1 575.529C805.9 557.607 799.6 549.987 799.6 549.987L711.6 558.895Z" fill="#FF6ED9"/>
<path d="M753.1 599.139C753.1 599.139 757.2 597.1 760.7 594.739C764.2 592.378 767.1 589.803 767.1 589.803C767.1 589.803 766.3 595.705 763.8 600.856C761.3 606.008 758.3 610.301 758.3 610.301L753.1 599.139Z" fill="#FF5ED2"/>
<path d="M716.4 605.686L710.4 600.642L715.1 594.203L721.1 599.247L716.4 605.686ZM711.8 600.535L716.2 604.183L719.6 599.461L715.2 595.812L711.8 600.535Z" fill="#5441AF"/>
<path d="M680.2 609.013L675.5 607.725L676.7 602.681L681.4 603.969L680.2 609.013ZM676.7 606.974L679.5 607.725L680.2 604.72L677.4 603.969L676.7 606.974Z" fill="#5441AF"/>
<path d="M749.1 583.9L744.4 582.612L745.6 577.568L750.3 578.856L749.1 583.9ZM745.6 581.861L748.4 582.612L749.1 579.607L746.3 578.856L745.6 581.861Z" fill="#5441AF"/>
<path d="M694.8 631.12L688.4 624.896L694.2 618.028L700.6 624.252L694.8 631.12ZM689.8 624.896L694.7 629.725L699.2 624.467L694.3 619.637L689.8 624.896Z" fill="#5441AF"/>
<path d="M780.4 585.081L774.7 579.715L779.7 573.597L785.4 578.963L780.4 585.081ZM776.1 579.715L780.3 583.685L784 579.178L779.8 575.207L776.1 579.715Z" fill="#5441AF"/>
<path d="M673.2 695.619L668.5 694.117L669.9 689.073L674.6 690.575L673.2 695.619ZM669.8 693.366L672.5 694.224L673.3 691.327L670.6 690.468L669.8 693.366Z" fill="#5441AF"/>
<path d="M666.9 675.658L665.4 668.038L672.5 666.429L674 674.048L666.9 675.658ZM666.6 668.79L667.7 674.37L672.9 673.19L671.8 667.609L666.6 668.79Z" fill="#5441AF"/>
<path d="M664.2 636.379C664.2 636.808 664.1 637.345 664.1 637.774L665.4 636.916L667.9 640.994L664.1 643.677L663.6 642.926C663.5 643.462 663.5 644.106 663.4 644.643L663.7 645.179L669.2 641.423L665.7 635.521L664.2 636.379Z" fill="#5441AF"/>
<path d="M702.2 573.383L697.7 576.28L696.1 573.49C695.8 573.705 695.6 573.919 695.3 574.241L697.3 577.783L703.5 573.812L700.8 569.09C700.5 569.305 700.3 569.519 700 569.841L702.2 573.383Z" fill="#5441AF"/>
<path d="M792.5 638.955L787.7 632.623L793.6 627.472L798.4 633.804L792.5 638.955ZM789.2 632.838L792.7 637.452L797 633.696L793.5 629.081L789.2 632.838Z" fill="#5441AF"/>
<path d="M795.3 663.102L791 660.741L793.2 656.126L797.5 658.487L795.3 663.102ZM792.3 660.311L794.9 661.706L796.2 658.916L793.6 657.521L792.3 660.311Z" fill="#5441AF"/>
<path d="M800 599.676L795.7 597.315L797.9 592.7L802.2 595.061L800 599.676ZM797 596.778L799.6 598.174L800.9 595.383L798.3 593.988L797 596.778Z" fill="#5441AF"/>
<path d="M820.8 645.287C820.6 644.965 820.4 644.75 820.2 644.428L816.6 647.111L812.8 641.209L817.5 637.774C817.4 637.452 817.3 637.023 817.3 636.594L811.5 640.887L816.4 648.506L820.8 645.287Z" fill="#5441AF"/>
<path d="M857.6 685.531L850.3 685.424L850.4 677.59L857.7 677.697L857.6 685.531ZM851.3 684.351L856.6 684.458L856.7 678.77L851.4 678.663L851.3 684.351Z" fill="#5441AF"/>
<path d="M823 682.312L820.8 675.658L827 673.297L829.2 679.951L823 682.312ZM822.1 676.302L823.6 680.917L827.9 679.307L826.4 674.692L822.1 676.302Z" fill="#5441AF"/>
<path d="M764.3 622.857L773.4 626.613L770.3 635.306C770.3 635.413 770.4 635.521 770.4 635.521C770.6 635.843 770.7 636.165 770.9 636.594L774.7 625.969L763.6 621.354C763.8 621.891 764 622.32 764.3 622.857Z" fill="#5441AF"/>
<path d="M683 657.306L688.5 665.463L689.8 664.389C690.2 663.638 690.5 662.994 690.9 662.243L688.7 663.96L684.4 657.521L690.4 652.906L693.4 657.306C693.6 656.984 693.7 656.555 693.9 656.233L690.7 651.404L683 657.306Z" fill="#5441AF"/>
<path d="M754.8 412.082C771.645 412.082 785.3 397.427 785.3 379.349C785.3 361.272 771.645 346.617 754.8 346.617C737.955 346.617 724.3 361.272 724.3 379.349C724.3 397.427 737.955 412.082 754.8 412.082Z" fill="#DF8E89"/>
<path d="M660.1 706.459C660.1 706.459 660.4 710.537 658.8 711.395C655.7 713.327 650.6 716.439 647.7 718.478C643.4 721.483 638.1 726.742 638.6 729.425C639.1 732.001 648.2 729.64 661.4 724.166C674.6 718.8 677.1 720.303 674.8 711.932C673.8 708.176 673.5 706.137 673.5 706.137L660.1 706.459Z" fill="#5441AF"/>
<path d="M867.4 696.049C867.4 696.049 871.1 696.585 871.7 698.41C872.8 702.059 874.7 708.068 876 711.503C877.9 716.654 881.7 723.201 884.2 723.201C886.7 723.201 886.3 713.112 884 698.195C881.7 683.278 883.6 680.917 875.5 681.668C871.9 681.99 870 681.883 870 681.883L867.4 696.049Z" fill="#5441AF"/>
<path d="M662.9 461.019C662.9 461.019 660.6 450.717 656.2 446.209C651.9 441.702 645.1 440.629 641 436.873C636.9 433.116 635.2 426.57 632.5 426.785C629.8 426.999 628.7 439.556 632.9 443.956C637.1 448.356 641.6 450.717 644.9 455.653C648.2 460.59 652.3 464.454 654.3 465.42C656.3 466.385 662.9 461.019 662.9 461.019Z" fill="#DF8E89"/>
<path d="M814.7 348.441C814.7 348.441 814.5 341.144 817.4 335.456C820.3 329.768 828.5 326.334 831.3 321.397C834.1 316.46 838.7 311.524 841.4 310.88C844.1 310.236 843.9 319.143 841.1 324.724C838.3 330.305 832.2 331.7 830.4 337.495C828.6 343.29 825.8 348.227 824.2 349.837C822.5 351.339 814.7 348.441 814.7 348.441Z" fill="#DF8E89"/>
<path d="M733.2 342.646C733.2 342.646 731.2 356.061 742.3 363.359C753.4 370.657 761.2 367.008 761.2 367.008C761.2 367.008 758.9 379.993 766.1 390.189C773.3 400.384 776.5 402.423 776.5 402.423C776.5 402.423 794.4 388.364 790.4 373.232C788.1 364.647 782.7 362.608 782.7 362.608C782.7 362.608 783 354.129 774.7 347.583C766.4 341.036 750.4 346.402 743.7 345.973C737 345.544 733.2 342.646 733.2 342.646Z" fill="#FF353A"/>
<path d="M653.1 467.673L662.6 456.941L669.6 464.776C669.6 464.776 679.4 466.707 684.2 468.425C689 470.142 693.1 473.039 693.1 473.039C693.1 473.039 716 450.61 728.2 444.063C740.4 437.409 759.4 433.331 774.2 425.497C789 417.662 802.2 402.638 802.2 402.638C802.2 402.638 807.2 385.681 809 378.813C810.8 372.052 813 360.032 813 360.032V348.12H826V359.066C826 359.066 830 370.549 831.2 389.974C832.4 409.506 828 425.175 828 425.175C828 425.175 810.5 442.561 804.3 449.107C798.1 455.761 790 464.883 790 464.883C790 464.883 795.7 486.883 800.5 509.421C805.3 531.958 806.2 552.348 806.2 552.348C806.2 552.348 784.9 569.519 755.5 570.593C726.1 571.666 706.7 559.109 706.7 559.109C706.7 559.109 707 540.543 708.4 528.201C709.7 515.86 715.7 497.615 715.7 497.615C715.7 497.615 710.7 503.733 706 507.489C701.3 511.245 696 514.25 696 514.25C696 514.25 681.8 509.099 673.2 497.079C664.5 485.059 660.5 474.864 660.5 474.864L653.1 467.673Z" fill="#5441AF"/>
<path d="M715.7 497.723C715.7 497.723 721.3 480.23 724.5 470.571C727.7 460.912 729.2 457.263 729.2 457.263C729.2 457.263 721.4 465.205 717 478.405C712.6 491.605 709.3 504.806 709.3 504.806L715.7 497.723Z" fill="#4F3D9D"/>
<path d="M556.2 556.641L558.3 552.563L591.1 532.065L604 556.641L603.4 559.646L569.3 580.895L556.2 556.641Z" fill="#FF5ED2"/>
<path d="M590.429 535.454L556.222 556.65L569.222 580.814L603.429 559.618L590.429 535.454Z" fill="#FF6ED9"/>
<path d="M422.2 714.937C422.2 714.937 416.6 678.126 421.9 642.067C427.3 605.471 436.4 567.266 436.4 567.266C436.4 567.266 465.2 573.705 485.7 569.627C506.2 565.548 530.7 558.143 530.7 558.143C530.7 558.143 534.9 578.856 537.3 603.539C539.6 628.223 538.1 624.467 541.4 636.594C544.7 648.721 556.3 684.136 560.6 694.546C565 704.956 569.7 717.834 569.7 717.834H554.4C554.4 717.834 524.2 684.029 511.4 663.638C498.6 643.248 482.8 607.081 482.8 607.081C482.8 607.081 465.8 644.857 458.9 660.526C452 676.302 434.7 718.478 434.7 718.478L422.2 714.937Z" fill="#4E3734"/>
<path d="M484.9 429.897C501.027 429.897 514.1 415.867 514.1 398.56C514.1 381.253 501.027 367.222 484.9 367.222C468.773 367.222 455.7 381.253 455.7 398.56C455.7 415.867 468.773 429.897 484.9 429.897Z" fill="#DF8E89"/>
<path d="M509.9 414.872C512.6 410.15 514.2 404.462 514.2 398.56C514.2 381.174 501.1 367.222 485 367.222C479 367.222 473.5 369.154 468.9 372.481C468.9 372.481 465.7 383.75 473.5 391.155C481.4 398.667 489.9 394.374 489.9 394.374C489.9 394.374 486.6 405.213 495.2 411.974C502.5 417.77 509.9 414.872 509.9 414.872Z" fill="#4E3734"/>
<path d="M513.2 385.896C527.007 385.896 538.2 373.884 538.2 359.066C538.2 344.248 527.007 332.236 513.2 332.236C499.393 332.236 488.2 344.248 488.2 359.066C488.2 373.884 499.393 385.896 513.2 385.896Z" fill="#4E3734"/>
<path d="M486.1 589.373C486.1 589.373 485.1 596.671 484.3 600.535C483.5 604.398 482.7 607.188 482.7 607.188L491.3 625.969C491.3 625.969 491.7 610.408 490.1 601.715C488.5 593.022 486.1 589.373 486.1 589.373Z" fill="#362E2D"/>
<path d="M422.2 714.937C422.2 714.937 412.3 716.761 407.2 717.405C402.1 718.049 395.5 719.874 394.9 722.449C394.3 725.025 403.1 727.601 416.9 729.21C430.7 730.713 431.9 732.43 433.1 724.059C433.6 720.196 434.5 718.693 434.5 718.693L422.2 714.937Z" fill="#FF353A"/>
<path d="M556.9 718.049C556.9 718.049 547.8 719.766 543 721.913C538.2 724.059 534.5 726.313 534.5 728.996C534.5 731.035 543.2 730.391 556.8 730.498C570.7 730.606 574.6 730.927 572.2 722.878C571.4 720.088 569.1 717.834 569.1 717.834L556.9 718.049Z" fill="#FF353A"/>
<path d="M393.5 494.932C393.5 494.932 388.9 488.815 385.7 486.883C382.5 484.952 377 482.805 374.4 481.195C371.8 479.586 366.6 475.829 365.1 478.298C363.6 480.766 365.9 485.059 369.5 487.313C373.1 489.674 378.7 499.976 384 500.728C389.3 501.479 391.6 501.693 391.6 501.693L393.5 494.932Z" fill="#DF8E89"/>
<path d="M570.6 533.889C570.6 533.889 572.9 532.923 576.3 536.572C579.7 540.221 582.9 548.592 584.1 551.704C585.3 554.817 585.6 557.929 586.7 560.075C587.8 562.329 588.1 564.69 586.7 565.548C585.3 566.407 581.1 562.973 577.8 559.431C574.5 555.89 570.5 553.529 568.4 548.699C566.4 544.085 566.6 540.328 566.6 540.328L570.6 533.889Z" fill="#DF8E89"/>
<path d="M395 489.996C395 489.996 410.6 493.001 416.1 494.074C421.6 495.147 428.1 496.435 428.1 496.435C428.1 496.435 443.6 475.186 454.2 463.488C464.8 451.897 470.6 443.848 486.3 443.848C506.5 443.848 530.2 471.322 543.1 487.527C558 506.308 572.2 531.314 572.2 531.314L564.4 543.977C564.4 543.977 546.3 529.275 539.1 524.982C531.9 520.689 521.4 515.001 521.4 515.001C521.4 515.001 525.2 526.055 527.8 538.397C530.4 550.738 530.8 558.036 530.8 558.036C530.8 558.036 514.1 570.163 484.7 571.988C455.3 573.812 436.5 567.158 436.5 567.158C436.5 567.158 438.1 555.031 439.8 547.09C441.5 539.255 443.4 532.279 443.4 532.279C443.4 532.279 432.8 533.245 419.1 528.094C401.3 521.44 390.2 506.523 390.2 506.523L395 489.996Z" fill="#7B6DCF"/>
<path d="M443.3 532.387C443.3 532.387 440.8 542.046 440.1 545.48C439.4 548.914 438.6 553.207 438.6 553.207C438.6 553.207 470 520.26 476.8 512.211C483.6 504.162 495.7 489.888 495.4 477.332C495.1 464.776 492.8 461.985 492.8 461.985C492.8 461.985 494.2 470.034 491.5 478.298C487.7 489.781 471.9 504.698 464.4 512.211C458.2 518.543 443.3 532.387 443.3 532.387Z" fill="#6A5AC1"/>
<path d="M512.4 481.303C512.4 481.303 516.5 493.966 518.1 499.869C519.7 505.772 521.3 515.001 521.3 515.001L527.3 518.328C527.3 518.328 523 504.913 520.3 497.508C517.6 490.103 512.4 481.303 512.4 481.303Z" fill="#6A5AC1"/>
<path d="M515.8 523.587L515.3 528.201L518.5 531.206L514.4 532.065L512.7 536.25L510.6 532.279L506.3 531.957L509.2 528.523L508.3 524.123L512.1 525.948L515.8 523.587Z" fill="#FF6ED9"/>
<path d="M530.7 558.143C530.7 558.143 530.6 556.319 530.2 552.885L528.2 555.46L524.7 555.138L526.6 558.358L525.3 561.47C528.9 559.431 530.7 558.143 530.7 558.143Z" fill="#FF6ED9"/>
<path d="M447.4 474.542L449 477.547L450.3 474.327L453.5 473.576L451 471.322L451.4 467.888L449.4 469.176C448 470.785 446.6 472.503 445.2 474.327L447.4 474.542Z" fill="#FF6ED9"/>
<path d="M448 570.056L451.5 569.197L448.2 566.3L448.6 561.792L445 564.261L441.1 562.543L442.2 566.944L440.9 568.553C442.7 568.983 445.1 569.519 448 570.056Z" fill="#FF6ED9"/>
<path d="M498.4 555.138L500.8 555.89L502.7 554.065L502.8 556.748L505 558.143L502.7 559.109L502.1 561.685L500.5 559.646L498.1 559.86L499.4 557.607L498.4 555.138Z" fill="#FF6ED9"/>
<path d="M450.4 503.089L453.5 503.947L456 501.693L456.2 505.235L458.9 506.952L455.9 508.24L455.2 511.567L453.1 508.884L449.9 509.206L451.7 506.308L450.4 503.089Z" fill="#FF6ED9"/>
<path d="M560.1 511.567L559.8 511.781L556.7 510.923L558 514.142L556.3 517.04L559.5 516.718L561.5 519.401L562.2 516.074L562.8 515.86C562 514.464 561.1 513.069 560.1 511.567Z" fill="#FF6ED9"/>
<path d="M485.7 509.957L487.4 510.386L488.7 509.206L488.8 511.03L490.3 511.996L488.7 512.64L488.3 514.464L487.2 513.069L485.5 513.284L486.4 511.674L485.7 509.957Z" fill="#FF6ED9"/>
<path d="M427 522.084L428.4 521.011V519.186L429.8 520.26L431.4 519.616L430.9 521.44L432 522.943H430.2L429.2 524.445L428.7 522.621L427 522.084Z" fill="#FF6ED9"/>
<path d="M559.9 535.499L561.6 535.928L562.9 534.748L563 536.572L564.5 537.538L562.9 538.289L562.5 540.114L561.4 538.611L559.7 538.826L560.6 537.216L559.9 535.499Z" fill="#FF6ED9"/>
<path d="M485.7 452.327L487.4 452.863L488.7 451.575L488.8 453.507L490.3 454.473L488.7 455.117L488.3 456.941L487.2 455.546L485.5 455.653L486.4 454.044L485.7 452.327Z" fill="#FF6ED9"/>
<path d="M529.9 485.81L531.6 486.239L532.9 485.059L533 486.883L534.5 487.849L532.9 488.493L532.5 490.318L531.4 488.922L529.6 489.137L530.6 487.527L529.9 485.81Z" fill="#FF6ED9"/>
<path d="M405.6 503.625L408.5 504.484L410.8 502.337L411 505.557L413.6 507.274L410.8 508.455L410.1 511.674L408.2 509.098L405.1 509.42L406.8 506.63L405.6 503.625Z" fill="#FF6ED9"/>
<path d="M467.6 536.25L472.8 540.543L478.9 538.289L476.8 544.836L480.6 550.416L474.2 550.309L470.4 555.997L468.5 549.343L462.4 547.197L467.7 543.226L467.6 536.25Z" fill="#FF6ED9"/>
<path d="M470 467.888L474.1 471.215L479 469.498L477.3 474.649L480.4 479.156L475.2 479.049L472.2 483.449L470.7 478.19L465.9 476.581L470.1 473.361L470 467.888Z" fill="#FF6ED9"/>
<path d="M539.1 513.82L536.3 509.206L534.6 514.357L529.6 515.752L533.6 519.186L533.5 521.869C534.2 522.299 534.9 522.621 535.5 523.05L537.6 521.548L542.4 523.587L541 518.328L544.3 514.035L539.1 513.82Z" fill="#FF6ED9"/>
<path d="M506.9 467.888L512.6 464.561L518.4 467.673L517.2 460.805L518 459.946C515.5 457.692 512.9 455.546 510.3 453.614L509.7 455.117L503.3 456.297L508 461.019L506.9 467.888Z" fill="#FF6ED9"/>
<path d="M944.5 540.221C944.5 540.221 940.7 579.929 955.5 626.398C970.3 672.868 988.3 716.117 988.3 716.117H1003.6C1003.6 716.117 1006.1 675.229 1005.6 648.399C1005.1 621.569 1004.8 601.393 1004.8 601.393C1004.8 601.393 1016.7 613.842 1023.3 618.35C1029.9 622.857 1037.7 622.535 1046.8 620.603C1055.9 618.672 1100.7 606.759 1100.7 606.759L1099.7 593.344C1099.7 593.344 1080.2 586.583 1068.1 584.222C1056 581.861 1042.3 577.246 1042.3 577.246C1042.3 577.246 1036.4 559.324 1029.4 544.407C1022.4 529.489 1019.6 524.66 1019.6 524.66L944.5 540.221Z" fill="#7B6DCF"/>
<path d="M1004.8 601.393C1004.8 601.393 995.9 593.666 989.9 586.69C983.9 579.715 979.3 572.095 979.3 572.095C979.3 572.095 985.7 588.085 993.9 596.778C1001.5 604.935 1004.9 606.974 1004.9 606.974L1004.8 601.393Z" fill="#6A5AC1"/>
<path d="M997.3 626.72L989.1 618.886L999.5 619.315L997.3 626.72Z" fill="#FF6ED9"/>
<path d="M975.9 604.183L979.9 597.315L980.8 604.935L975.9 604.183Z" fill="#FF6ED9"/>
<path d="M997.1 700.878L994.3 693.258L1000.6 697.015L997.1 700.878Z" fill="#FF6ED9"/>
<path d="M1011.1 555.89L1012.9 564.368L1005.4 561.578L1011.1 555.89Z" fill="#FF6ED9"/>
<path d="M979.8 677.912L984.6 677.268L982.6 681.99L979.8 677.912Z" fill="#FF6ED9"/>
<path d="M1031.3 589.91L1036.2 589.159L1034.1 593.988L1031.3 589.91Z" fill="#FF6ED9"/>
<path d="M1051.2 598.71L1054.8 592.056L1058.4 598.173L1051.2 598.71Z" fill="#FF6ED9"/>
<path d="M1089.3 602.574L1094.3 597.53L1097.1 602.144L1089.3 602.574Z" fill="#FF6ED9"/>
<path d="M982.5 552.241L983.2 546.982L986.9 550.524L982.5 552.241Z" fill="#FF6ED9"/>
<path d="M967.7 637.023L975.8 645.823L964.8 648.506L967.7 637.023Z" fill="#FF6ED9"/>
<path d="M1013.2 583.363L1009.4 595.061L1002.3 585.617L1013.2 583.363Z" fill="#FF6ED9"/>
<path d="M1068.8 589.159L1078.1 598.495L1067.7 603.432L1068.8 589.159Z" fill="#FF6ED9"/>
<path d="M961.5 566.192L968.5 575.529L971 566.192H961.5Z" fill="#FF6ED9"/>
<path d="M1029.4 544.407C1029.2 543.87 1028.9 543.441 1028.7 542.904L1025.5 540.328L1026.1 558.787L1033.2 552.885C1032 550.094 1030.7 547.197 1029.4 544.407Z" fill="#FF6ED9"/>
<path d="M944.1 553.636C944.1 556.104 944.2 558.787 944.3 561.792L949 562.544L944.5 553.314L944.1 553.636Z" fill="#FF6ED9"/>
<path d="M1005.6 658.272C1005.6 654.838 1005.6 651.511 1005.5 648.399C1005.5 647.755 1005.5 647.111 1005.5 646.467L990.1 651.726L1005.6 658.272Z" fill="#FF6ED9"/>
<path d="M1046.1 606.974L1034.2 615.667L1043.3 621.354C1044.4 621.14 1045.5 620.925 1046.7 620.711C1047.6 620.496 1049 620.174 1050.6 619.852L1046.1 606.974Z" fill="#FF6ED9"/>
<path d="M950.6 608.691H961.2L951.6 587.442L948.7 600.213C949.4 603.003 950 605.793 950.6 608.691Z" fill="#FF6ED9"/>
<path d="M984.2 405.643C1000.33 405.643 1013.4 391.613 1013.4 374.305C1013.4 356.998 1000.33 342.968 984.2 342.968C968.073 342.968 955 356.998 955 374.305C955 391.613 968.073 405.643 984.2 405.643Z" fill="#8C503E"/>
<path d="M1100.5 606.759C1100.5 606.759 1103.1 617.92 1104.7 623.286C1106.3 628.545 1109.3 635.199 1111.7 635.306C1114.2 635.413 1114.8 625.54 1113.4 610.515C1112 595.491 1113.2 593.451 1105.1 593.559C1101.5 593.559 1099.6 593.344 1099.6 593.344L1100.5 606.759Z" fill="#4E3734"/>
<path d="M988.3 716.117C988.3 716.117 977.9 718.478 972.2 720.839C966.5 723.2 962.1 725.776 962.1 728.781C962.1 731.142 972.5 730.391 988.7 730.391C1005.3 730.498 1010 730.927 1007.1 721.913C1006.1 718.8 1003.6 716.01 1003.6 716.01H988.3V716.117Z" fill="#4E3734"/>
<path d="M930.1 332.88C930.1 332.88 927.7 325.261 928 321.075C928.3 316.89 929.5 310.45 929.7 307.016C929.9 303.582 929.7 296.606 932.5 296.392C935.3 296.177 937.4 300.577 937.3 305.299C937.2 310.021 942.3 320.86 940 326.441C937.7 332.022 936.6 334.383 936.6 334.383L930.1 332.88Z" fill="#8C503E"/>
<path d="M1101.1 421.526C1101.1 421.526 1108.2 418.95 1111.1 416.267C1114 413.584 1118.1 408.648 1120.6 406.394C1123.1 404.14 1128.4 400.062 1126.8 397.594C1125.2 395.125 1120.7 395.877 1117.2 398.882C1113.8 401.779 1102.6 403.926 1099.8 409.184C1097 414.443 1096 416.911 1096 416.911L1101.1 421.526Z" fill="#8C503E"/>
<path d="M924.3 330.948L940.8 335.027C940.8 335.027 939.2 378.169 940.5 384.071C942.3 391.798 972.3 417.34 972.3 417.34C972.3 417.34 1004.8 417.662 1015.3 421.955C1025.8 426.248 1036.8 434.082 1046.8 434.834C1056.8 435.585 1093.6 412.296 1093.6 412.296L1105.4 425.175C1105.4 425.175 1094.9 440.092 1087.6 447.497C1078.1 457.156 1062.6 470.571 1051.8 472.181C1041 473.79 1007.5 460.376 1007.5 460.376C1007.5 460.376 1015 488.279 1020.7 500.406C1026.5 512.533 1032 521.333 1032 521.333C1032 521.333 1006.1 537.967 984.2 542.582C962.3 547.197 937.5 542.582 937.5 542.582C937.5 542.582 930.7 522.943 936 491.069C941.3 459.195 945 451.361 945 451.361C945 451.361 918.7 413.048 914.5 397.379C910.3 381.71 924.3 330.948 924.3 330.948Z" fill="#FF6ED9"/>
<path d="M993.8 444.278C993.8 444.278 998.6 452.112 1002 455.332C1005.3 458.444 1007.6 460.376 1007.6 460.376L1012.7 477.976C1012.7 477.976 1003.4 470.571 999.9 463.273C996.2 455.868 993.8 444.278 993.8 444.278Z" fill="#FF5ED2"/>
<path d="M945 451.146C945 451.146 948.6 440.307 954.9 432.365C962.1 423.458 972.2 417.34 972.2 417.34L968.9 414.55C968.9 414.55 959.8 418.306 951.7 427.965C944.7 436.336 941.8 446.639 941.8 446.639L945 451.146Z" fill="#FF5ED2"/>
<path d="M1013.5 374.305C1013.5 356.92 1000.4 342.968 984.3 342.968C977.7 342.968 971.5 345.329 966.6 349.407C966.6 349.407 959.5 359.603 969.3 366.149C979.1 372.696 985.9 367.866 985.9 367.866C985.9 367.866 988.4 370.227 988.2 374.413C987.7 382.247 977.9 384.071 978.1 394.159C978.4 408.111 992.9 405.965 992.9 413.37C992.9 419.809 985.2 423.78 984.5 432.365C983.8 441.165 987.7 447.712 993.7 449.107C1013.3 453.722 1019.5 429.253 1020.5 422.384C1021.5 415.516 1019.1 402.208 1015.5 389.223C1014.4 385.037 1013.5 374.305 1013.5 374.305Z" fill="white"/>
<path d="M946.034 271.803L905.936 299.332L922.803 327.629L962.902 300.1L946.034 271.803Z" fill="#4F3D9D"/>
<path d="M942.1 269.991L945.7 271.708L958.8 299.719L923 325.797L903.3 330.948V297.465L942.1 269.991Z" fill="white"/>
<path d="M942.3 304.226L902.2 331.807L902.1 297.465L942.1 269.991L942.3 304.226Z" fill="#5441AF"/>
<path d="M942.1 269.991L945.9 271.923L946.1 272.567L942.1 270.957V269.991Z" fill="#4F3D9D"/>
<path d="M944.9 272.03L953.8 299.289L915.6 327.729L923 325.797L958.8 299.719L946.1 272.567L944.9 272.03Z" fill="#F7F7F7"/>
<path d="M935.5 323.973L936.2 316.138L939.1 314.099L939.9 317.319L935.5 323.973Z" fill="#8C503E"/>
<rect width="5.17473" height="17.6721" transform="matrix(-0.704334 0.709869 -0.658536 -0.752549 129.282 533.344)" fill="#FFEFF0"/>
</g>
<path d="M774.06 293.68C770.98 293.68 768.46 292.64 766.5 290.56C764.58 288.44 763.62 285.62 763.62 282.1C763.62 278.58 764.58 275.78 766.5 273.7C768.46 271.58 770.98 270.52 774.06 270.52C777.14 270.52 779.64 271.58 781.56 273.7C783.48 275.78 784.44 278.58 784.44 282.1C784.44 285.62 783.48 288.44 781.56 290.56C779.64 292.64 777.14 293.68 774.06 293.68ZM799.08 271H806.22L777.54 313H770.4L799.08 271ZM774.06 288.76C775.42 288.76 776.48 288.2 777.24 287.08C778.04 285.96 778.44 284.3 778.44 282.1C778.44 279.9 778.04 278.24 777.24 277.12C776.48 276 775.42 275.44 774.06 275.44C772.74 275.44 771.68 276.02 770.88 277.18C770.08 278.3 769.68 279.94 769.68 282.1C769.68 284.26 770.08 285.92 770.88 287.08C771.68 288.2 772.74 288.76 774.06 288.76ZM802.56 313.48C800.56 313.48 798.76 313.02 797.16 312.1C795.6 311.14 794.38 309.78 793.5 308.02C792.62 306.26 792.18 304.22 792.18 301.9C792.18 299.58 792.62 297.54 793.5 295.78C794.38 294.02 795.6 292.68 797.16 291.76C798.76 290.8 800.56 290.32 802.56 290.32C805.64 290.32 808.14 291.38 810.06 293.5C812.02 295.58 813 298.38 813 301.9C813 305.42 812.02 308.24 810.06 310.36C808.14 312.44 805.64 313.48 802.56 313.48ZM802.56 308.56C803.92 308.56 804.98 308 805.74 306.88C806.54 305.72 806.94 304.06 806.94 301.9C806.94 299.74 806.54 298.1 805.74 296.98C804.98 295.82 803.92 295.24 802.56 295.24C801.24 295.24 800.18 295.8 799.38 296.92C798.58 298.04 798.18 299.7 798.18 301.9C798.18 304.1 798.58 305.76 799.38 306.88C800.18 308 801.24 308.56 802.56 308.56Z" fill="#534FD2"/>
<path d="M769.06 288.68C765.98 288.68 763.46 287.64 761.5 285.56C759.58 283.44 758.62 280.62 758.62 277.1C758.62 273.58 759.58 270.78 761.5 268.7C763.46 266.58 765.98 265.52 769.06 265.52C772.14 265.52 774.64 266.58 776.56 268.7C778.48 270.78 779.44 273.58 779.44 277.1C779.44 280.62 778.48 283.44 776.56 285.56C774.64 287.64 772.14 288.68 769.06 288.68ZM794.08 266H801.22L772.54 308H765.4L794.08 266ZM769.06 283.76C770.42 283.76 771.48 283.2 772.24 282.08C773.04 280.96 773.44 279.3 773.44 277.1C773.44 274.9 773.04 273.24 772.24 272.12C771.48 271 770.42 270.44 769.06 270.44C767.74 270.44 766.68 271.02 765.88 272.18C765.08 273.3 764.68 274.94 764.68 277.1C764.68 279.26 765.08 280.92 765.88 282.08C766.68 283.2 767.74 283.76 769.06 283.76ZM797.56 308.48C795.56 308.48 793.76 308.02 792.16 307.1C790.6 306.14 789.38 304.78 788.5 303.02C787.62 301.26 787.18 299.22 787.18 296.9C787.18 294.58 787.62 292.54 788.5 290.78C789.38 289.02 790.6 287.68 792.16 286.76C793.76 285.8 795.56 285.32 797.56 285.32C800.64 285.32 803.14 286.38 805.06 288.5C807.02 290.58 808 293.38 808 296.9C808 300.42 807.02 303.24 805.06 305.36C803.14 307.44 800.64 308.48 797.56 308.48ZM797.56 303.56C798.92 303.56 799.98 303 800.74 301.88C801.54 300.72 801.94 299.06 801.94 296.9C801.94 294.74 801.54 293.1 800.74 291.98C799.98 290.82 798.92 290.24 797.56 290.24C796.24 290.24 795.18 290.8 794.38 291.92C793.58 293.04 793.18 294.7 793.18 296.9C793.18 299.1 793.58 300.76 794.38 301.88C795.18 303 796.24 303.56 797.56 303.56Z" fill="white"/>
<path d="M583.438 235.554C591.203 235.554 598.423 237.253 605.096 240.65C611.769 244.047 617.108 248.84 621.112 255.028C625.116 261.216 627.118 268.314 627.118 276.322C627.118 285.179 624.813 293.005 620.202 299.8C615.713 306.595 609.525 311.812 601.638 315.452C593.751 319.092 585.015 320.912 575.43 320.912C563.175 320.912 552.437 318.546 543.216 313.814C534.116 309.082 527.018 302.045 521.922 292.702C516.826 283.359 514.278 271.893 514.278 258.304C514.278 243.744 517.19 231.125 523.014 220.448C528.959 209.771 537.21 201.641 547.766 196.06C558.443 190.479 570.819 187.688 584.894 187.688C592.538 187.688 599.818 188.598 606.734 190.418C613.65 192.117 619.535 194.543 624.388 197.698L608.918 227.728C602.609 223.239 594.904 220.994 585.804 220.994C578.403 220.994 572.275 222.875 567.422 226.636C562.69 230.276 559.596 235.615 558.14 242.652C564.813 237.92 573.246 235.554 583.438 235.554ZM572.518 291.246C576.401 291.246 579.555 290.093 581.982 287.788C584.409 285.483 585.622 282.328 585.622 278.324C585.622 274.32 584.409 271.165 581.982 268.86C579.555 266.433 576.401 265.22 572.518 265.22C568.635 265.22 565.481 266.433 563.054 268.86C560.627 271.165 559.414 274.32 559.414 278.324C559.414 282.328 560.627 285.483 563.054 287.788C565.481 290.093 568.635 291.246 572.518 291.246ZM692.298 320.912C681.014 320.912 671.004 318.303 662.268 313.086C653.654 307.747 646.859 300.103 641.884 290.154C637.031 280.083 634.604 268.132 634.604 254.3C634.604 240.468 637.031 228.577 641.884 218.628C646.859 208.557 653.654 200.913 662.268 195.696C671.004 190.357 681.014 187.688 692.298 187.688C703.582 187.688 713.532 190.357 722.146 195.696C730.882 200.913 737.677 208.557 742.53 218.628C747.505 228.577 749.992 240.468 749.992 254.3C749.992 268.132 747.505 280.083 742.53 290.154C737.677 300.103 730.882 307.747 722.146 313.086C713.532 318.303 703.582 320.912 692.298 320.912ZM692.298 286.514C702.005 286.514 706.858 275.776 706.858 254.3C706.858 232.824 702.005 222.086 692.298 222.086C682.592 222.086 677.738 232.824 677.738 254.3C677.738 275.776 682.592 286.514 692.298 286.514Z" fill="#534FD2"/>
<path d="M570.438 222.554C578.203 222.554 585.423 224.253 592.096 227.65C598.769 231.047 604.108 235.84 608.112 242.028C612.116 248.216 614.118 255.314 614.118 263.322C614.118 272.179 611.813 280.005 607.202 286.8C602.713 293.595 596.525 298.812 588.638 302.452C580.751 306.092 572.015 307.912 562.43 307.912C550.175 307.912 539.437 305.546 530.216 300.814C521.116 296.082 514.018 289.045 508.922 279.702C503.826 270.359 501.278 258.893 501.278 245.304C501.278 230.744 504.19 218.125 510.014 207.448C515.959 196.771 524.21 188.641 534.766 183.06C545.443 177.479 557.819 174.688 571.894 174.688C579.538 174.688 586.818 175.598 593.734 177.418C600.65 179.117 606.535 181.543 611.388 184.698L595.918 214.728C589.609 210.239 581.904 207.994 572.804 207.994C565.403 207.994 559.275 209.875 554.422 213.636C549.69 217.276 546.596 222.615 545.14 229.652C551.813 224.92 560.246 222.554 570.438 222.554ZM559.518 278.246C563.401 278.246 566.555 277.093 568.982 274.788C571.409 272.483 572.622 269.328 572.622 265.324C572.622 261.32 571.409 258.165 568.982 255.86C566.555 253.433 563.401 252.22 559.518 252.22C555.635 252.22 552.481 253.433 550.054 255.86C547.627 258.165 546.414 261.32 546.414 265.324C546.414 269.328 547.627 272.483 550.054 274.788C552.481 277.093 555.635 278.246 559.518 278.246ZM679.298 307.912C668.014 307.912 658.004 305.303 649.268 300.086C640.654 294.747 633.859 287.103 628.884 277.154C624.031 267.083 621.604 255.132 621.604 241.3C621.604 227.468 624.031 215.577 628.884 205.628C633.859 195.557 640.654 187.913 649.268 182.696C658.004 177.357 668.014 174.688 679.298 174.688C690.582 174.688 700.532 177.357 709.146 182.696C717.882 187.913 724.677 195.557 729.53 205.628C734.505 215.577 736.992 227.468 736.992 241.3C736.992 255.132 734.505 267.083 729.53 277.154C724.677 287.103 717.882 294.747 709.146 300.086C700.532 305.303 690.582 307.912 679.298 307.912ZM679.298 273.514C689.005 273.514 693.858 262.776 693.858 241.3C693.858 219.824 689.005 209.086 679.298 209.086C669.592 209.086 664.738 219.824 664.738 241.3C664.738 262.776 669.592 273.514 679.298 273.514Z" fill="white"/>
<path d="M448.84 187.72V220H439.96V216.16C438.72 217.56 437.24 218.64 435.52 219.4C433.8 220.12 431.94 220.48 429.94 220.48C425.7 220.48 422.34 219.26 419.86 216.82C417.38 214.38 416.14 210.76 416.14 205.96V187.72H425.5V204.58C425.5 209.78 427.68 212.38 432.04 212.38C434.28 212.38 436.08 211.66 437.44 210.22C438.8 208.74 439.48 206.56 439.48 203.68V187.72H448.84ZM476.591 187.24C479.591 187.24 482.311 187.94 484.751 189.34C487.231 190.7 489.171 192.64 490.571 195.16C491.971 197.64 492.671 200.54 492.671 203.86C492.671 207.18 491.971 210.1 490.571 212.62C489.171 215.1 487.231 217.04 484.751 218.44C482.311 219.8 479.591 220.48 476.591 220.48C472.471 220.48 469.231 219.18 466.871 216.58V231.64H457.511V187.72H466.451V191.44C468.771 188.64 472.151 187.24 476.591 187.24ZM474.971 212.8C477.371 212.8 479.331 212 480.851 210.4C482.411 208.76 483.191 206.58 483.191 203.86C483.191 201.14 482.411 198.98 480.851 197.38C479.331 195.74 477.371 194.92 474.971 194.92C472.571 194.92 470.591 195.74 469.031 197.38C467.511 198.98 466.751 201.14 466.751 203.86C466.751 206.58 467.511 208.76 469.031 210.4C470.591 212 472.571 212.8 474.971 212.8Z" fill="#534FD2"/>
<path d="M443.84 182.72V215H434.96V211.16C433.72 212.56 432.24 213.64 430.52 214.4C428.8 215.12 426.94 215.48 424.94 215.48C420.7 215.48 417.34 214.26 414.86 211.82C412.38 209.38 411.14 205.76 411.14 200.96V182.72H420.5V199.58C420.5 204.78 422.68 207.38 427.04 207.38C429.28 207.38 431.08 206.66 432.44 205.22C433.8 203.74 434.48 201.56 434.48 198.68V182.72H443.84ZM471.591 182.24C474.591 182.24 477.311 182.94 479.751 184.34C482.231 185.7 484.171 187.64 485.571 190.16C486.971 192.64 487.671 195.54 487.671 198.86C487.671 202.18 486.971 205.1 485.571 207.62C484.171 210.1 482.231 212.04 479.751 213.44C477.311 214.8 474.591 215.48 471.591 215.48C467.471 215.48 464.231 214.18 461.871 211.58V226.64H452.511V182.72H461.451V186.44C463.771 183.64 467.151 182.24 471.591 182.24ZM469.971 207.8C472.371 207.8 474.331 207 475.851 205.4C477.411 203.76 478.191 201.58 478.191 198.86C478.191 196.14 477.411 193.98 475.851 192.38C474.331 190.74 472.371 189.92 469.971 189.92C467.571 189.92 465.591 190.74 464.031 192.38C462.511 193.98 461.751 196.14 461.751 198.86C461.751 201.58 462.511 203.76 464.031 205.4C465.591 207 467.571 207.8 469.971 207.8Z" fill="white"/>
<path d="M511.984 136.9C512.951 137.217 513.718 137.75 514.284 138.5C514.851 139.233 515.134 140.15 515.134 141.25C515.134 142.767 514.551 143.942 513.384 144.775C512.218 145.592 510.518 146 508.284 146H499.584V128.5H507.784C509.851 128.5 511.443 128.908 512.559 129.725C513.676 130.525 514.234 131.633 514.234 133.05C514.234 133.917 514.034 134.683 513.634 135.35C513.234 136.017 512.684 136.533 511.984 136.9ZM502.834 131.05V135.875H507.434C508.568 135.875 509.434 135.675 510.034 135.275C510.651 134.858 510.959 134.258 510.959 133.475C510.959 132.675 510.651 132.075 510.034 131.675C509.434 131.258 508.568 131.05 507.434 131.05H502.834ZM508.084 143.45C510.601 143.45 511.859 142.608 511.859 140.925C511.859 139.242 510.601 138.4 508.084 138.4H502.834V143.45H508.084ZM518.603 128.5H521.853V146H518.603V128.5ZM538.536 137.05H541.611V144.025C540.711 144.742 539.661 145.292 538.461 145.675C537.261 146.058 536.028 146.25 534.761 146.25C532.978 146.25 531.37 145.867 529.936 145.1C528.503 144.317 527.378 143.242 526.561 141.875C525.745 140.508 525.336 138.967 525.336 137.25C525.336 135.533 525.745 133.992 526.561 132.625C527.378 131.258 528.503 130.192 529.936 129.425C531.386 128.642 533.011 128.25 534.811 128.25C536.278 128.25 537.611 128.492 538.811 128.975C540.011 129.458 541.02 130.167 541.836 131.1L539.786 133.1C538.453 131.767 536.845 131.1 534.961 131.1C533.728 131.1 532.628 131.358 531.661 131.875C530.711 132.392 529.961 133.117 529.411 134.05C528.878 134.983 528.611 136.05 528.611 137.25C528.611 138.417 528.878 139.467 529.411 140.4C529.961 141.333 530.711 142.067 531.661 142.6C532.628 143.133 533.72 143.4 534.936 143.4C536.303 143.4 537.503 143.1 538.536 142.5V137.05ZM558.232 146.25C556.882 146.25 555.574 146.058 554.307 145.675C553.057 145.292 552.065 144.783 551.332 144.15L552.457 141.625C553.174 142.192 554.049 142.658 555.082 143.025C556.132 143.375 557.182 143.55 558.232 143.55C559.532 143.55 560.499 143.342 561.132 142.925C561.782 142.508 562.107 141.958 562.107 141.275C562.107 140.775 561.924 140.367 561.557 140.05C561.207 139.717 560.757 139.458 560.207 139.275C559.657 139.092 558.907 138.883 557.957 138.65C556.624 138.333 555.54 138.017 554.707 137.7C553.89 137.383 553.182 136.892 552.582 136.225C551.999 135.542 551.707 134.625 551.707 133.475C551.707 132.508 551.965 131.633 552.482 130.85C553.015 130.05 553.807 129.417 554.857 128.95C555.924 128.483 557.224 128.25 558.757 128.25C559.824 128.25 560.874 128.383 561.907 128.65C562.94 128.917 563.832 129.3 564.582 129.8L563.557 132.325C562.79 131.875 561.99 131.533 561.157 131.3C560.324 131.067 559.515 130.95 558.732 130.95C557.449 130.95 556.49 131.167 555.857 131.6C555.24 132.033 554.932 132.608 554.932 133.325C554.932 133.825 555.107 134.233 555.457 134.55C555.824 134.867 556.282 135.117 556.832 135.3C557.382 135.483 558.132 135.692 559.082 135.925C560.382 136.225 561.449 136.542 562.282 136.875C563.115 137.192 563.824 137.683 564.407 138.35C565.007 139.017 565.307 139.917 565.307 141.05C565.307 142.017 565.04 142.892 564.507 143.675C563.99 144.458 563.199 145.083 562.132 145.55C561.065 146.017 559.765 146.25 558.232 146.25ZM576.055 146.25C573.638 146.25 571.755 145.575 570.405 144.225C569.055 142.858 568.38 140.908 568.38 138.375V128.5H571.63V138.25C571.63 141.683 573.113 143.4 576.08 143.4C579.03 143.4 580.505 141.683 580.505 138.25V128.5H583.705V138.375C583.705 140.908 583.03 142.858 581.68 144.225C580.346 145.575 578.471 146.25 576.055 146.25ZM604.331 146L604.306 134.4L598.556 144H597.106L591.356 134.55V146H588.256V128.5H590.931L597.881 140.1L604.706 128.5H607.381L607.406 146H604.331ZM628.208 146L628.183 134.4L622.433 144H620.983L615.233 134.55V146H612.133V128.5H614.808L621.758 140.1L628.583 128.5H631.258L631.283 146H628.208ZM649.135 143.275V146H636.01V128.5H648.785V131.225H639.26V135.775H647.71V138.45H639.26V143.275H649.135ZM664.208 146L660.633 140.875C660.483 140.892 660.258 140.9 659.958 140.9H656.008V146H652.758V128.5H659.958C661.475 128.5 662.792 128.75 663.908 129.25C665.042 129.75 665.908 130.467 666.508 131.4C667.108 132.333 667.408 133.442 667.408 134.725C667.408 136.042 667.083 137.175 666.433 138.125C665.8 139.075 664.883 139.783 663.683 140.25L667.708 146H664.208ZM664.133 134.725C664.133 133.608 663.767 132.75 663.033 132.15C662.3 131.55 661.225 131.25 659.808 131.25H656.008V138.225H659.808C661.225 138.225 662.3 137.925 663.033 137.325C663.767 136.708 664.133 135.842 664.133 134.725ZM683.379 146.25C682.029 146.25 680.72 146.058 679.454 145.675C678.204 145.292 677.212 144.783 676.479 144.15L677.604 141.625C678.32 142.192 679.195 142.658 680.229 143.025C681.279 143.375 682.329 143.55 683.379 143.55C684.679 143.55 685.645 143.342 686.279 142.925C686.929 142.508 687.254 141.958 687.254 141.275C687.254 140.775 687.07 140.367 686.704 140.05C686.354 139.717 685.904 139.458 685.354 139.275C684.804 139.092 684.054 138.883 683.104 138.65C681.77 138.333 680.687 138.017 679.854 137.7C679.037 137.383 678.329 136.892 677.729 136.225C677.145 135.542 676.854 134.625 676.854 133.475C676.854 132.508 677.112 131.633 677.629 130.85C678.162 130.05 678.954 129.417 680.004 128.95C681.07 128.483 682.37 128.25 683.904 128.25C684.97 128.25 686.02 128.383 687.054 128.65C688.087 128.917 688.979 129.3 689.729 129.8L688.704 132.325C687.937 131.875 687.137 131.533 686.304 131.3C685.47 131.067 684.662 130.95 683.879 130.95C682.595 130.95 681.637 131.167 681.004 131.6C680.387 132.033 680.079 132.608 680.079 133.325C680.079 133.825 680.254 134.233 680.604 134.55C680.97 134.867 681.429 135.117 681.979 135.3C682.529 135.483 683.279 135.692 684.229 135.925C685.529 136.225 686.595 136.542 687.429 136.875C688.262 137.192 688.97 137.683 689.554 138.35C690.154 139.017 690.454 139.917 690.454 141.05C690.454 142.017 690.187 142.892 689.654 143.675C689.137 144.458 688.345 145.083 687.279 145.55C686.212 146.017 684.912 146.25 683.379 146.25ZM705.026 141.95H696.276L694.551 146H691.201L699.076 128.5H702.276L710.176 146H706.776L705.026 141.95ZM703.951 139.4L700.651 131.75L697.376 139.4H703.951ZM712.402 128.5H715.652V143.25H724.802V146H712.402V128.5ZM740.493 143.275V146H727.368V128.5H740.143V131.225H730.618V135.775H739.068V138.45H730.618V143.275H740.493Z" fill="#1C2A39"/>
<defs>
<filter id="filter0_d" x="0" y="0" width="1238" height="820" filterUnits="userSpaceOnUse" color-interpolation-filters="sRGB">
<feFlood flood-opacity="0" result="BackgroundImageFix"/>
<feColorMatrix in="SourceAlpha" type="matrix" values="0 0 0 0 0 0 0 0 0 0 0 0 0 0 0 0 0 0 127 0"/>
<feOffset dy="6"/>
<feGaussianBlur stdDeviation="29.5"/>
<feColorMatrix type="matrix" values="0 0 0 0 0.208402 0 0 0 0 0.190642 0 0 0 0 0.329167 0 0 0 0.08 0"/>
<feBlend mode="normal" in2="BackgroundImageFix" result="effect1_dropShadow"/>
<feBlend mode="normal" in="SourceGraphic" in2="effect1_dropShadow" result="shape"/>
</filter>
<clipPath id="clip0">
<rect width="1016.1" height="460.507" fill="white" transform="translate(111 269.991)"/>
</clipPath>
</defs>
</svg>
