<svg width="40" height="14" viewBox="0 0 40 14" fill="none" xmlns="http://www.w3.org/2000/svg">
<path d="M27.4067 0.733333V3.20667C26.6467 2.8 25.7801 2.57333 24.8601 2.57333C22.7267 2.57333 20.8801 3.8 20 5.58C19.1201 3.8 17.2734 2.57333 15.1401 2.57333C13.0067 2.57333 11.16 3.8 10.28 5.58C9.40005 3.80667 7.55338 2.57333 5.42005 2.57333C2.45338 2.57333 0.0467139 4.94 0.00671387 7.88C0.00671387 7.89333 0.00671387 7.91333 0.00671387 7.92C0.00671387 9.50667 0.00671387 12.5933 0.00671387 12.5933C0.00671387 13.0067 0.346714 13.34 0.773381 13.34H2.02005C2.42005 13.34 2.75338 13.04 2.78005 12.6533C2.78005 12.6533 2.78005 12.6533 2.78005 12.66V8.09333C2.78005 8.08 2.78005 8.06667 2.78005 8.05333C2.78005 8.02 2.78005 7.98667 2.78005 7.95333C2.78005 6.50667 3.96005 5.32667 5.42005 5.32667C6.88005 5.32667 8.06005 6.5 8.06005 7.95333C8.06005 7.96667 8.06005 7.97333 8.06005 7.98667V12.5933C8.06005 13.0067 8.40671 13.34 8.82671 13.34H10.0667C10.4934 13.34 10.8334 13.0067 10.8334 12.5933C10.8334 12.5933 10.8334 12.0067 10.8334 11.22C11.82 12.5067 13.3801 13.34 15.1401 13.34C17.2734 13.34 19.1201 12.1133 20 10.3333C20.8867 12.1133 22.7267 13.34 24.8601 13.34C26.9934 13.34 28.8401 12.1133 29.7201 10.3333C30.6067 12.1133 32.4467 13.34 34.5801 13.34C37.5734 13.34 39.9934 10.9267 39.9934 7.95333C39.9934 4.98 37.5667 2.56667 34.5801 2.56667C32.8267 2.56667 31.2667 3.4 30.2801 4.68667V0.733333C30.2801 0.326667 29.9467 0 29.5401 0H28.1534C27.7401 0 27.4067 0.326667 27.4067 0.733333ZM15.1401 10.5867C13.6867 10.5867 12.5 9.41333 12.5 7.96C12.5 6.51333 13.6801 5.33333 15.1401 5.33333C16.5934 5.33333 17.7801 6.50667 17.7801 7.96C17.7801 9.41333 16.6001 10.5867 15.1401 10.5867ZM24.8601 10.5867C23.4067 10.5867 22.2201 9.41333 22.2201 7.96C22.2201 6.51333 23.4001 5.33333 24.8601 5.33333C26.3201 5.33333 27.5001 6.50667 27.5001 7.96C27.5001 9.41333 26.3134 10.5867 24.8601 10.5867ZM34.5801 5.34C36.0334 5.34 37.2201 6.51333 37.2201 7.96667C37.2201 9.42 36.0401 10.5933 34.5801 10.5933C33.1201 10.5933 31.9401 9.42 31.9401 7.96667C31.9401 6.51333 33.1267 5.34 34.5801 5.34Z" fill="white"/>
</svg>
